<svg id="Laag_5" data-name="Laag 5" xmlns="http://www.w3.org/2000/svg" viewBox="0 0 395.67 394.59"><defs><style>.cls-1{fill:#8f9286;}.cls-2{fill:#c2c9ba;}.cls-3{fill:#6e7166;}</style></defs><title>grutto_vogel_contour</title><g id="Laag_4" data-name="Laag 4"><path class="cls-1" d="M214.64,327.83v62.35a143.54,143.54,0,0,1-18.31,3.5c-3,.34-6.05.6-9.06.91H174.33c-2.88-.3-5.77-.54-8.64-.91a108.86,108.86,0,0,1-58.76-26.54,162.69,162.69,0,0,1-20.28-21.6,285.58,285.58,0,0,1-17.74-24.12,26,26,0,0,0,8.58,1.05,29.91,29.91,0,0,0,5.21-.78c5.89-1.17,10.93.35,13.94,1s13.18,1.2,33.31,2.17c26,1.25,39.06,1.88,45.07.63.52-.1,8.29-1.73,12-.51a8.36,8.36,0,0,0,2.81.51c1.9,0,2.54-.61,3.83-.76,2.91-.33,3.57,2.5,7,3.06,2.55.42,3.24-1,6.64-1.27A15,15,0,0,1,214.64,327.83Z" transform="translate(181.02)"/></g><g id="Laag_1" data-name="Laag 1"><path class="cls-2" d="M214.64.06V327.83a15,15,0,0,0-7.32-1.27c-3.4.31-4.09,1.69-6.64,1.27-3.45-.56-4.11-3.39-7-3.06-1.29.15-1.93.79-3.83.76A8.36,8.36,0,0,1,187,325c-3.71-1.22-11.48.41-12,.51-6,1.25-19,.62-45.07-.63-20.13-1-30.19-1.46-33.31-2.17s-8-2.21-13.94-1a29.91,29.91,0,0,1-5.21.78,26,26,0,0,1-8.58-1.05c-1.45-2.25-2.83-4.53-4.14-6.86-4.69-8.32-8-17.14-11.28-26a94.6,94.6,0,0,0-13.73-24.72A78.4,78.4,0,0,0,7.64,238.78a264.15,264.15,0,0,0-25.17-8.7c-17.67-5.44-34.83-12-50.72-21-9.46-5.37-18.73-11-28.07-16.55-16-9.5-31-20.16-43.75-33.23-17.1-17.47-28.67-37.57-34.25-60.49a246,246,0,0,1-6.52-50.69c-.48-15.17-.13-30.32,2.29-45.38.44-2.71.39-2.72,3.39-2.72H212.23C213,0,213.83,0,214.64.06Z" transform="translate(181.02)"/></g><g id="Laag_3" data-name="Laag 3"><path class="cls-3" d="M211,195.7a13.78,13.78,0,0,0-3.7-2.8c2.28-.09,4-.72,4.21-1.66s-1.4-2.1-2.81-3.07c-2.14-1.47-3.1-1.41-5.87-2.93a18.29,18.29,0,0,1-3.83-2.56,14,14,0,0,1-3.58-5.23,19.51,19.51,0,0,1,3.45,1.66c2.26,1.37,2.61,2.21,4.6,3.19s4.46,1.52,4.72,1c.09-.17-.05-.55-1-1.4,0,0-5.16-3.86-7.79-6a68.71,68.71,0,0,1-10-10.09c-2-4.53-5.13-11.14-9.19-19-6-11.57-8.94-17.35-13.15-22.59-4.49-5.6-9.72-9.74-20.17-18a206.73,206.73,0,0,0-20.81-14.81,196.92,196.92,0,0,0-17.61-9.71c.21-1.79.47-4.34.64-7.4a88.3,88.3,0,0,0-.39-17c-1.17-8.64-1.87-13.73-6-18.38a23.48,23.48,0,0,0-14.17-7.28,25.28,25.28,0,0,0-13.15,1.92,29.92,29.92,0,0,0-8.55,5.36c-3,2.58-2.58,3.13-6.77,7.66a9.46,9.46,0,0,0-2,3.19,9.07,9.07,0,0,0-.51,2.3A105.54,105.54,0,0,1,44,60.26C22.73,71-16.9,81.67-24.64,86.68c-.88.57-3.08,2-2.81,2.81.21.61,1.8.57,2.26.56a10.45,10.45,0,0,0,5.48-1.84c.07,0,9-3.1,27-9.19,13.8-4.69,20.73-7,23.38-7.78,8.43-2.65,10.32-3,18.62-6.26,2.81-1.1,9.82-3.89,10.09-3.32,0,.12-.12.49-3.45,2.56a67.69,67.69,0,0,1-11.1,6C37,73.47,34,76.83,19.91,83.75c-3.6,1.77-23.29,11.32-33.06,16.08-2.62,1.28-6.42,3.16-6.13,4.34.21.86,2.93.79,3.83.77,4.79-.11,36.74-16.16,35.53-16.09h0s10.28-5.81,16.52-9a159.72,159.72,0,0,1,22.89-9.5,27.86,27.86,0,0,0,6.38,1.54c3.58.4,5.76-.1,7.73,1.52A4.82,4.82,0,0,1,75.32,76c.48,2.05-.85,3.92-2,5.62-4.15,5.87-.49,2.16-5.74,8.17-.63.71-7.14,8.28-8.81,16.08-.6,2.82-.49,5.27,2.68,16.85,3,10.91,4.48,16.36,6.77,22.22,4,10.36,8.35,21.34,16,29.49,4.73,5.05,7.92,8.42,7.92,8.42,6,6.36,6.27,6.48,7.15,7.79,3.39,5,4.46,10.1,5.35,14.3a76.15,76.15,0,0,1,1.16,8.55c1.81,17,2.72,25.44,2.68,27.45-.08,3.78-.38,6.64.77,10.72.93,3.31,1.95,4.32,2.8,7.66a27.46,27.46,0,0,1,.51,10.21c-1,11.08,1.94,14.54,2.3,36.13,0,2.8.08,7.26-.13,12.84a19.35,19.35,0,0,1-4.72,2.35,24.4,24.4,0,0,1-9.57.77c-2.19-.26-1.84-.51-6.9-1.53-5.69-1.16-6.93-1-8-.52-2.58,1.16-4.15,4.08-3.7,4.6.31.36,1.46-.57,3.19-1.15,4.2-1.41,7.24.72,14.17,2.17a51.66,51.66,0,0,0,7.66,1c-5.92,8.77-10.2,11.46-13.15,12.13-.68.16-3,.6-4.08,2.43s-.55,4.16.12,4.34.85-1.17,2.3-2.05a6.26,6.26,0,0,1,3.83-.63c3.73.1,6.75-4.46,16.09-13.28a12.67,12.67,0,0,1,4.34-2.81c1.58-.6,3.61-1.37,5.36-.64,2.72,1.14,1.82,4.68,5.49,9.58,1.66,2.21,4,4.3,4.47,3.95.21-.14,0-.71-.51-2.42-1-2.94-1.47-4.41-2.43-6.89-.44-1.14-1.07-2.8-1.79-4.86a139.33,139.33,0,0,0,16,1.66c5,.22,6.73,0,11.11.64,2.9.44,5.3,1,5.49.51s-2-2-4.09-2.93-6.34-2.35-22.08-1.54c-.86.05-3.09.17-4.38-1.24a3.87,3.87,0,0,1-.8-1.53,32.47,32.47,0,0,0-2.87-6.54c10.49-31.82,14.31-44.57,15.32-49a38,38,0,0,1,2.56-8.17c1.63-3.61,2.75-4.43,3.57-7.15,1-3.29.45-5.75,0-9.19-.2-1.52-.27-2.44-.3-3.22-.05-1.59,0-2.77,0-3.15.8-13.8.1-19.84.1-19.84s-.5-4.33.55-7.23c0,0,.17-.44.34-1,.24-.72.38-1.24.43-1.44a15.74,15.74,0,0,1,1.07-2.59c1.22-2.43,14.58-2.41,22.46-3,9.64-.7,9.22-2.13,13.88-1.37,7,1.16,12.58,5.15,14.8,3a2.91,2.91,0,0,0,.77-1.91,11.19,11.19,0,0,0,5.1,1c2.65-.11,6.06-1.26,6.13-2.68C211.92,197,211.89,196.64,211,195.7ZM142.08,206a12.32,12.32,0,0,1-.2,4.43c-.25,1.74,0,.9-.3,10.68-.1,3.13-.11,2.53-.14,3.87-.18,8,.45,8.87-.16,12.66-.58,3.6-.87,5.41-2.26,6.92-1.06,1.16-2.46,1.91-2.81,3.7a10,10,0,0,0,.1,2.69c.14,1.62.19,2.94.22,3.79v0a8.79,8.79,0,0,1,.19,2.81,8,8,0,0,1-.47,1.94c-.09.92-.23,2-.42,3.08a51.94,51.94,0,0,1-2.39,8.68c-2,6-3.06,9-4.08,11.58-5.94,15.1-7.43,28.26-9.19,28.08-.49-.05-.65-1.09-.8-3.33l-.27.78c-2.16-17.63-3-31.05-3.19-37.28,0-.79,0-1.54,0-2.25-.15-2.14-.26-4.24-.3-6.26a53.41,53.41,0,0,1,.17-6.3c0-.3.07-.59.1-.87v0a7.79,7.79,0,0,1,.2-2.68,5.54,5.54,0,0,1,.63-1.54h0a15.81,15.81,0,0,0,.62-3.09,7.88,7.88,0,0,0,0-1.66,8.53,8.53,0,0,0-1.23-3.15,39.87,39.87,0,0,1-2.78-7.07c-.06-.24-.11-.47-.16-.72a20.38,20.38,0,0,1-.25-4.66c-.06-.51-.11-1-.17-1.59q-.56-5.42-1-10.25v0c-.4-2.37-.9-5.05-1.49-8.23a16.24,16.24,0,0,1-.39-5.24,15.37,15.37,0,0,1,.93-3.43c.6-1.91.29-2.15.73-2.82.74-1.13,2.32-1.25,3.45-1.4,5.52-.75,5.5-2.93,9.7-3,1.42,0,3.25.56,6.9,1.7,3.93,1.23,5.52,2.18,6.72,3.15a10.72,10.72,0,0,1,2.56,2.81A10,10,0,0,1,142.08,206Z" transform="translate(181.02)"/></g></svg>